<svg xmlns="http://www.w3.org/2000/svg" viewBox="0 0 152.52 31.29"><defs><style>.cls-1,.cls-2{fill:#dc2727;}.cls-1{fill-rule:evenodd;}</style></defs><g id="Capa_2" data-name="Capa 2"><g id="Capa_1-2" data-name="Capa 1"><path class="cls-1" d="M5.67,27.7l5.46-9.46L18.52,31a16,16,0,0,1-2.87.26A15.62,15.62,0,0,1,5.67,27.7ZM30.4,20.85a15.7,15.7,0,0,1-9.28,9.46l-5.46-9.46ZM11.12,13,3.75,25.81A15.6,15.6,0,0,1,0,15.65,15.11,15.11,0,0,1,.22,13ZM27.53,5.48a15.54,15.54,0,0,1,3.76,10.17,16,16,0,0,1-.21,2.6H20.16ZM12.79.26A15.85,15.85,0,0,1,15.65,0a15.58,15.58,0,0,1,10,3.59L20.16,13Zm2.86,10.16H.89A15.7,15.7,0,0,1,10.19,1Z"/><path class="cls-2" d="M45.16,19v6.34h-4.4v-19h6.69a10.9,10.9,0,0,1,3.44.48,6.58,6.58,0,0,1,2.37,1.31,5,5,0,0,1,1.37,2,6.58,6.58,0,0,1,.44,2.45,7.28,7.28,0,0,1-.45,2.6,5.2,5.2,0,0,1-1.39,2,6.73,6.73,0,0,1-2.38,1.32,10.78,10.78,0,0,1-3.4.47Zm0-3.31h2.29a3.23,3.23,0,0,0,2.47-.82,3.23,3.23,0,0,0,.76-2.29,3.45,3.45,0,0,0-.2-1.19,2.43,2.43,0,0,0-.59-.91,2.62,2.62,0,0,0-1-.6,4.72,4.72,0,0,0-1.44-.2H45.16Z"/><path class="cls-2" d="M63.32,8.13a2.15,2.15,0,0,1-.19.91,2.31,2.31,0,0,1-.54.74,2.63,2.63,0,0,1-.78.51,2.57,2.57,0,0,1-1,.19,2.33,2.33,0,0,1-.92-.19,2.67,2.67,0,0,1-.76-.51A2.12,2.12,0,0,1,58.65,9a2.15,2.15,0,0,1-.19-.91,2.36,2.36,0,0,1,.71-1.68,2.45,2.45,0,0,1,.76-.5,2.32,2.32,0,0,1,.92-.18,2.56,2.56,0,0,1,1,.18,2.43,2.43,0,0,1,.78.5,2.4,2.4,0,0,1,.54.76A2.2,2.2,0,0,1,63.32,8.13Zm-.47,3.7V25.32h-4V11.83Z"/><path class="cls-2" d="M77.17,15a2.3,2.3,0,0,1-.35.35.79.79,0,0,1-.49.13,1.09,1.09,0,0,1-.54-.14l-.54-.32a4.17,4.17,0,0,0-.7-.32,2.9,2.9,0,0,0-1-.14,2.84,2.84,0,0,0-1.28.27,2.3,2.3,0,0,0-.89.78,3.41,3.41,0,0,0-.52,1.24,7.06,7.06,0,0,0-.17,1.66,5,5,0,0,0,.75,3,2.37,2.37,0,0,0,2.06,1,3,3,0,0,0,1.11-.17,4.15,4.15,0,0,0,.7-.39l.52-.4a1,1,0,0,1,.61-.18.83.83,0,0,1,.73.35l1.17,1.44A6.45,6.45,0,0,1,77,24.38a6.61,6.61,0,0,1-1.41.7,6.81,6.81,0,0,1-1.45.35,10,10,0,0,1-1.42.1,6.13,6.13,0,0,1-2.36-.47,5.7,5.7,0,0,1-2-1.36,6.49,6.49,0,0,1-1.35-2.19,8.33,8.33,0,0,1-.5-3A8,8,0,0,1,67,15.82a6.25,6.25,0,0,1,1.28-2.2,6.06,6.06,0,0,1,2.11-1.47,7.52,7.52,0,0,1,2.91-.53,7,7,0,0,1,2.78.51,6.67,6.67,0,0,1,2.16,1.48Z"/><path class="cls-2" d="M92,10.22a1.56,1.56,0,0,1-.41.46.88.88,0,0,1-.55.16,1.29,1.29,0,0,1-.64-.19l-.78-.42a6.13,6.13,0,0,0-1-.42,3.87,3.87,0,0,0-1.28-.19,2.77,2.77,0,0,0-1.84.52,1.81,1.81,0,0,0-.6,1.43,1.32,1.32,0,0,0,.36.95,3.17,3.17,0,0,0,1,.65,9.88,9.88,0,0,0,1.35.5q.76.22,1.56.51a13,13,0,0,1,1.55.65,5.28,5.28,0,0,1,1.35,1,4.34,4.34,0,0,1,1,1.42,5.13,5.13,0,0,1,.37,2,6.64,6.64,0,0,1-.46,2.46,5.63,5.63,0,0,1-1.32,2A6.09,6.09,0,0,1,89.42,25a7.93,7.93,0,0,1-2.89.49,9.31,9.31,0,0,1-1.8-.18,11.19,11.19,0,0,1-3.39-1.3A7.24,7.24,0,0,1,80,23L81.33,21a1,1,0,0,1,.4-.37,1.12,1.12,0,0,1,.56-.15,1.55,1.55,0,0,1,.79.25c.26.17.56.35.9.55a6.49,6.49,0,0,0,1.15.54,4.16,4.16,0,0,0,1.53.25,2.86,2.86,0,0,0,1.86-.53,2,2,0,0,0,.67-1.67,1.56,1.56,0,0,0-.37-1.08,3,3,0,0,0-.95-.69,9.61,9.61,0,0,0-1.35-.48c-.5-.14-1-.29-1.55-.46a12.84,12.84,0,0,1-1.55-.62,5,5,0,0,1-1.34-1,4.44,4.44,0,0,1-1-1.51,6.06,6.06,0,0,1-.36-2.23A5.39,5.39,0,0,1,82.45,7.9a6.15,6.15,0,0,1,2-1.27,7.48,7.48,0,0,1,2.77-.47,10.55,10.55,0,0,1,1.7.13,8.82,8.82,0,0,1,1.57.41,8.67,8.67,0,0,1,1.38.63,6.76,6.76,0,0,1,1.16.84Z"/><path class="cls-2" d="M96.84,25.32V5.84h4V13a7,7,0,0,1,1.58-1,5.05,5.05,0,0,1,2-.38,4.83,4.83,0,0,1,2,.38,4.23,4.23,0,0,1,1.43,1.07,4.68,4.68,0,0,1,.89,1.63,6.73,6.73,0,0,1,.3,2.05v8.57h-4V16.75a2.41,2.41,0,0,0-.46-1.55,1.65,1.65,0,0,0-1.34-.55,2.83,2.83,0,0,0-1.25.29,4.67,4.67,0,0,0-1.12.77v9.61Z"/><path class="cls-2" d="M122.57,25.32a1.78,1.78,0,0,1-.86-.16,1.15,1.15,0,0,1-.49-.65l-.29-.74a11.83,11.83,0,0,1-1,.76,6.69,6.69,0,0,1-1,.55,5.34,5.34,0,0,1-1.07.34,6.84,6.84,0,0,1-1.25.11,5.5,5.5,0,0,1-1.68-.24,3.46,3.46,0,0,1-1.28-.71,3.26,3.26,0,0,1-.82-1.17,4.28,4.28,0,0,1-.28-1.61,3.46,3.46,0,0,1,.36-1.48,3.68,3.68,0,0,1,1.26-1.38,8,8,0,0,1,2.42-1,14.78,14.78,0,0,1,3.84-.42v-.58a2.5,2.5,0,0,0-.49-1.73,1.78,1.78,0,0,0-1.38-.53,3.47,3.47,0,0,0-1.17.16,4.81,4.81,0,0,0-.82.35c-.23.13-.47.25-.69.35a2,2,0,0,1-.81.16,1.26,1.26,0,0,1-.71-.2A1.6,1.6,0,0,1,114,15l-.73-1.26a8.43,8.43,0,0,1,2.71-1.61,9.59,9.59,0,0,1,3.2-.52,5.71,5.71,0,0,1,2.2.4,4.72,4.72,0,0,1,1.67,1.1,5,5,0,0,1,1,1.69,6.1,6.1,0,0,1,.36,2.13v8.43Zm-4.63-2.46a3.25,3.25,0,0,0,1.37-.27,4.11,4.11,0,0,0,1.18-.89V19.86a10.9,10.9,0,0,0-2,.15,5,5,0,0,0-1.24.4,1.43,1.43,0,0,0-.63.54,1.34,1.34,0,0,0-.17.65,1.12,1.12,0,0,0,.38,1A1.81,1.81,0,0,0,117.94,22.86Z"/><path class="cls-2" d="M128.61,25.32V11.83H131a2.27,2.27,0,0,1,.5.05,1,1,0,0,1,.34.16.74.74,0,0,1,.21.3,2,2,0,0,1,.12.44L132.4,14a6.64,6.64,0,0,1,1.66-1.81,3.41,3.41,0,0,1,2-.66,2.35,2.35,0,0,1,1.48.44L137,15a.53.53,0,0,1-.21.38.71.71,0,0,1-.41.11,2.68,2.68,0,0,1-.52-.06,4,4,0,0,0-.76-.06,2.78,2.78,0,0,0-2.5,1.7v8.27Z"/><path class="cls-2" d="M146.46,11.62a6.89,6.89,0,0,1,2.45.42,5.32,5.32,0,0,1,1.92,1.21,5.53,5.53,0,0,1,1.24,1.94,7.14,7.14,0,0,1,.45,2.61,5,5,0,0,1,0,.74,1.14,1.14,0,0,1-.14.46.53.53,0,0,1-.28.23,1.18,1.18,0,0,1-.45.07h-7.78a3.8,3.8,0,0,0,1,2.45,3.06,3.06,0,0,0,2.15.76,3.92,3.92,0,0,0,1.21-.17,5.8,5.8,0,0,0,.9-.38l.73-.37a1.42,1.42,0,0,1,.7-.17.8.8,0,0,1,.72.35l1.18,1.44a6.1,6.1,0,0,1-1.35,1.17,7.11,7.11,0,0,1-1.48.7,7.68,7.68,0,0,1-1.53.35,10.5,10.5,0,0,1-1.45.1,7.78,7.78,0,0,1-2.66-.46,6.09,6.09,0,0,1-2.17-1.38,6.42,6.42,0,0,1-1.47-2.26,8.45,8.45,0,0,1-.54-3.15,7.08,7.08,0,0,1,.46-2.56,6.29,6.29,0,0,1,3.42-3.57A7,7,0,0,1,146.46,11.62Zm.08,2.78a2.43,2.43,0,0,0-1.81.66,3.47,3.47,0,0,0-.86,1.89h5a3.6,3.6,0,0,0-.13-.93,2.17,2.17,0,0,0-.4-.82,2,2,0,0,0-.74-.57A2.45,2.45,0,0,0,146.54,14.4Z"/></g></g></svg>